# MagicaVoxel @ Ephtracy

# group
o 

# material
mtllib missile.mtl
usemtl palette

# normals
vn -1 0 0
vn 1 0 0
vn 0 0 1
vn 0 0 -1
vn 0 -1 0
vn 0 1 0

# texcoords
vt 0.841797 0.5
vt 0.845703 0.5
vt 0.849609 0.5
vt 0.861328 0.5
vt 0.873047 0.5
vt 0.958984 0.5

# verts
v -0.2 0.3 0.3
v -0.2 0.3 0.2
v -0.2 0.4 0.4
v -0.2 0.4 0.3
v -0.2 0.4 0.2
v -0.2 0.4 0.1
v -0.2 0.4 0
v -0.2 0.4 -0.2
v -0.2 0.4 -0.5
v -0.2 0.5 -0.2
v -0.2 0.5 -0.5
v -0.2 0.6 0.4
v -0.2 0.6 0.3
v -0.2 0.6 0.2
v -0.2 0.6 0.1
v -0.2 0.6 0
v -0.2 0.7 0.3
v -0.2 0.7 0.2
v -0.1 0.3 0.4
v -0.1 0.3 0.3
v -0.1 0.3 0.2
v -0.1 0.3 0.1
v -0.1 0.3 0
v -0.1 0.4 0.5
v -0.1 0.4 0.4
v -0.1 0.4 0.3
v -0.1 0.4 0.2
v -0.1 0.4 0.1
v -0.1 0.4 0
v -0.1 0.4 -0.2
v -0.1 0.5 -0.2
v -0.1 0.5 -0.4
v -0.1 0.6 0.5
v -0.1 0.6 0.4
v -0.1 0.6 0.3
v -0.1 0.6 0.2
v -0.1 0.6 0.1
v -0.1 0.6 0
v -0.1 0.6 -0.2
v -0.1 0.6 -0.4
v -0.1 0.6 -0.5
v -0.1 0.7 0.4
v -0.1 0.7 0.3
v -0.1 0.7 0.2
v -0.1 0.7 0.1
v -0.1 0.7 0
v -0.1 0.7 -0.2
v -0.1 0.7 -0.5
v 0 0.3 -0.2
v 0 0.3 -0.5
v 0 0.4 -0.2
v 0 0.4 -0.4
v 0 0.4 -0.5
v 0.1 0.5 -0.4
v 0.1 0.5 -0.5
v 0.1 0.6 -0.4
v 0.1 0.6 -0.5
v -0.1 0.4 -0.4
v -0.1 0.4 -0.5
v -0.1 0.5 -0.4
v -0.1 0.5 -0.5
v 0 0.6 -0.2
v 0 0.6 -0.4
v 0 0.6 -0.5
v 0 0.7 -0.2
v 0 0.7 -0.5
v 0.1 0.3 0.4
v 0.1 0.3 0.3
v 0.1 0.3 0.2
v 0.1 0.3 0.1
v 0.1 0.3 0
v 0.1 0.3 -0.2
v 0.1 0.3 -0.5
v 0.1 0.4 0.5
v 0.1 0.4 0.4
v 0.1 0.4 0.3
v 0.1 0.4 0.2
v 0.1 0.4 0.1
v 0.1 0.4 0
v 0.1 0.4 -0.2
v 0.1 0.4 -0.3
v 0.1 0.4 -0.4
v 0.1 0.4 -0.5
v 0.1 0.5 -0.2
v 0.1 0.5 -0.3
v 0.1 0.5 -0.4
v 0.1 0.6 0.5
v 0.1 0.6 0.4
v 0.1 0.6 0.3
v 0.1 0.6 0.2
v 0.1 0.6 0.1
v 0.1 0.6 0
v 0.1 0.6 -0.2
v 0.1 0.7 0.4
v 0.1 0.7 0.3
v 0.1 0.7 0.2
v 0.1 0.7 0.1
v 0.1 0.7 0
v 0.2 0.3 0.3
v 0.2 0.3 0.2
v 0.2 0.4 0.4
v 0.2 0.4 0.3
v 0.2 0.4 0.2
v 0.2 0.4 0.1
v 0.2 0.4 0
v 0.2 0.5 -0.2
v 0.2 0.5 -0.5
v 0.2 0.6 0.4
v 0.2 0.6 0.3
v 0.2 0.6 0.2
v 0.2 0.6 0.1
v 0.2 0.6 0
v 0.2 0.6 -0.2
v 0.2 0.6 -0.5
v 0.2 0.7 0.3
v 0.2 0.7 0.2
v -0.1 0.4 0.5
v -0.1 0.6 0.5
v 0.1 0.4 0.5
v 0.1 0.6 0.5
v -0.2 0.4 0.4
v -0.2 0.6 0.4
v -0.1 0.3 0.4
v -0.1 0.4 0.4
v -0.1 0.6 0.4
v -0.1 0.7 0.4
v 0.1 0.3 0.4
v 0.1 0.4 0.4
v 0.1 0.6 0.4
v 0.1 0.7 0.4
v 0.2 0.4 0.4
v 0.2 0.6 0.4
v -0.2 0.3 0.3
v -0.2 0.4 0.3
v -0.2 0.6 0.3
v -0.2 0.7 0.3
v -0.1 0.3 0.3
v -0.1 0.4 0.3
v -0.1 0.6 0.3
v -0.1 0.7 0.3
v 0.1 0.3 0.3
v 0.1 0.4 0.3
v 0.1 0.6 0.3
v 0.1 0.7 0.3
v 0.2 0.3 0.3
v 0.2 0.4 0.3
v 0.2 0.6 0.3
v 0.2 0.7 0.3
v -0.2 0.4 -0.2
v -0.2 0.5 -0.2
v -0.1 0.4 -0.2
v -0.1 0.5 -0.2
v -0.1 0.6 -0.2
v -0.1 0.7 -0.2
v 0 0.3 -0.2
v 0 0.4 -0.2
v 0 0.6 -0.2
v 0 0.7 -0.2
v 0.1 0.3 -0.2
v 0.1 0.4 -0.2
v 0.1 0.5 -0.2
v 0.1 0.6 -0.2
v 0.2 0.5 -0.2
v 0.2 0.6 -0.2
v -0.2 0.3 0.2
v -0.2 0.4 0.2
v -0.2 0.6 0.2
v -0.2 0.7 0.2
v -0.1 0.3 0.2
v -0.1 0.4 0.2
v -0.1 0.6 0.2
v -0.1 0.7 0.2
v 0.1 0.3 0.2
v 0.1 0.4 0.2
v 0.1 0.6 0.2
v 0.1 0.7 0.2
v 0.2 0.3 0.2
v 0.2 0.4 0.2
v 0.2 0.6 0.2
v 0.2 0.7 0.2
v -0.2 0.4 0
v -0.2 0.6 0
v -0.1 0.3 0
v -0.1 0.4 0
v -0.1 0.6 0
v -0.1 0.7 0
v 0.1 0.3 0
v 0.1 0.4 0
v 0.1 0.6 0
v 0.1 0.7 0
v 0.2 0.4 0
v 0.2 0.6 0
v -0.1 0.4 -0.4
v -0.1 0.5 -0.4
v -0.1 0.6 -0.4
v 0 0.4 -0.4
v 0 0.6 -0.4
v 0.1 0.4 -0.4
v 0.1 0.5 -0.4
v 0.1 0.6 -0.4
v -0.2 0.4 -0.5
v -0.2 0.5 -0.5
v -0.1 0.4 -0.5
v -0.1 0.5 -0.5
v -0.1 0.6 -0.5
v -0.1 0.7 -0.5
v 0 0.3 -0.5
v 0 0.4 -0.5
v 0 0.6 -0.5
v 0 0.7 -0.5
v 0.1 0.3 -0.5
v 0.1 0.4 -0.5
v 0.1 0.5 -0.5
v 0.1 0.6 -0.5
v 0.2 0.5 -0.5
v 0.2 0.6 -0.5
v -0.1 0.3 0.4
v 0.1 0.3 0.4
v -0.2 0.3 0.3
v -0.1 0.3 0.3
v 0.1 0.3 0.3
v 0.2 0.3 0.3
v -0.2 0.3 0.2
v -0.1 0.3 0.2
v 0.1 0.3 0.2
v 0.2 0.3 0.2
v -0.1 0.3 0.1
v 0.1 0.3 0.1
v -0.1 0.3 0
v 0.1 0.3 0
v 0 0.3 -0.2
v 0.1 0.3 -0.2
v 0 0.3 -0.5
v 0.1 0.3 -0.5
v -0.1 0.4 0.5
v 0.1 0.4 0.5
v -0.2 0.4 0.4
v -0.1 0.4 0.4
v 0.1 0.4 0.4
v 0.2 0.4 0.4
v -0.2 0.4 0.3
v -0.1 0.4 0.3
v 0.1 0.4 0.3
v 0.2 0.4 0.3
v -0.2 0.4 0.2
v -0.1 0.4 0.2
v 0.1 0.4 0.2
v 0.2 0.4 0.2
v -0.2 0.4 0.1
v -0.1 0.4 0.1
v 0.1 0.4 0.1
v 0.2 0.4 0.1
v -0.2 0.4 0
v -0.1 0.4 0
v 0.1 0.4 0
v 0.2 0.4 0
v -0.2 0.4 -0.2
v -0.1 0.4 -0.2
v 0 0.4 -0.2
v 0.1 0.4 -0.2
v -0.1 0.4 -0.4
v 0 0.4 -0.4
v -0.2 0.4 -0.5
v -0.1 0.4 -0.5
v 0.1 0.5 -0.2
v 0.2 0.5 -0.2
v 0.1 0.5 -0.3
v 0.1 0.5 -0.4
v 0.1 0.5 -0.5
v 0.2 0.5 -0.5
v -0.1 0.6 -0.4
v 0 0.6 -0.4
v -0.1 0.6 -0.5
v 0 0.6 -0.5
v 0 0.4 -0.4
v 0.1 0.4 -0.4
v 0 0.4 -0.5
v 0.1 0.4 -0.5
v -0.2 0.5 -0.2
v -0.1 0.5 -0.2
v -0.1 0.5 -0.4
v -0.2 0.5 -0.5
v -0.1 0.5 -0.5
v -0.1 0.6 0.5
v 0.1 0.6 0.5
v -0.2 0.6 0.4
v -0.1 0.6 0.4
v 0.1 0.6 0.4
v 0.2 0.6 0.4
v -0.2 0.6 0.3
v -0.1 0.6 0.3
v 0.1 0.6 0.3
v 0.2 0.6 0.3
v -0.2 0.6 0.2
v -0.1 0.6 0.2
v 0.1 0.6 0.2
v 0.2 0.6 0.2
v -0.2 0.6 0.1
v -0.1 0.6 0.1
v 0.1 0.6 0.1
v 0.2 0.6 0.1
v -0.2 0.6 0
v -0.1 0.6 0
v 0.1 0.6 0
v 0.2 0.6 0
v -0.1 0.6 -0.2
v 0 0.6 -0.2
v 0.1 0.6 -0.2
v 0.2 0.6 -0.2
v 0 0.6 -0.4
v 0.1 0.6 -0.4
v 0.1 0.6 -0.5
v 0.2 0.6 -0.5
v -0.1 0.7 0.4
v 0.1 0.7 0.4
v -0.2 0.7 0.3
v -0.1 0.7 0.3
v 0.1 0.7 0.3
v 0.2 0.7 0.3
v -0.2 0.7 0.2
v -0.1 0.7 0.2
v 0.1 0.7 0.2
v 0.2 0.7 0.2
v -0.1 0.7 0.1
v 0.1 0.7 0.1
v -0.1 0.7 0
v 0.1 0.7 0
v -0.1 0.7 -0.2
v 0 0.7 -0.2
v -0.1 0.7 -0.5
v 0 0.7 -0.5

# faces
f 4/3/1 2/3/1 1/3/1
f 5/3/1 2/3/1 4/3/1
f 10/1/1 9/1/1 8/1/1
f 11/1/1 9/1/1 10/1/1
f 12/2/1 4/2/1 3/2/1
f 13/3/1 5/3/1 4/3/1
f 13/2/1 4/2/1 12/2/1
f 14/4/1 6/4/1 5/4/1
f 14/3/1 5/3/1 13/3/1
f 15/5/1 7/5/1 6/5/1
f 15/4/1 6/4/1 14/4/1
f 16/5/1 7/5/1 15/5/1
f 17/3/1 14/3/1 13/3/1
f 18/3/1 14/3/1 17/3/1
f 25/2/1 20/2/1 19/2/1
f 26/2/1 20/2/1 25/2/1
f 27/4/1 22/4/1 21/4/1
f 28/5/1 23/5/1 22/5/1
f 28/4/1 22/4/1 27/4/1
f 29/5/1 23/5/1 28/5/1
f 31/6/1 30/6/1 29/6/1
f 33/1/1 25/1/1 24/1/1
f 34/1/1 25/1/1 33/1/1
f 38/6/1 31/6/1 29/6/1
f 39/5/1 32/5/1 31/5/1
f 39/6/1 31/6/1 38/6/1
f 40/5/1 32/5/1 39/5/1
f 42/2/1 35/2/1 34/2/1
f 43/2/1 35/2/1 42/2/1
f 44/4/1 37/4/1 36/4/1
f 45/5/1 38/5/1 37/5/1
f 45/4/1 37/4/1 44/4/1
f 46/5/1 38/5/1 45/5/1
f 47/1/1 41/1/1 40/1/1
f 47/1/1 40/1/1 39/1/1
f 48/1/1 41/1/1 47/1/1
f 51/1/1 50/1/1 49/1/1
f 52/1/1 50/1/1 51/1/1
f 53/1/1 50/1/1 52/1/1
f 56/1/1 55/1/1 54/1/1
f 57/1/1 55/1/1 56/1/1
f 58/1/2 59/1/2 60/1/2
f 60/1/2 59/1/2 61/1/2
f 62/1/2 63/1/2 65/1/2
f 63/1/2 64/1/2 65/1/2
f 65/1/2 64/1/2 66/1/2
f 67/2/2 68/2/2 75/2/2
f 75/2/2 68/2/2 76/2/2
f 69/4/2 70/4/2 77/4/2
f 70/5/2 71/5/2 78/5/2
f 77/4/2 70/4/2 78/4/2
f 78/5/2 71/5/2 79/5/2
f 72/1/2 73/1/2 80/1/2
f 80/1/2 73/1/2 81/1/2
f 81/1/2 73/1/2 82/1/2
f 82/1/2 73/1/2 83/1/2
f 80/6/2 81/6/2 84/6/2
f 79/6/2 80/6/2 84/6/2
f 81/5/2 82/5/2 85/5/2
f 84/6/2 81/6/2 85/6/2
f 85/5/2 82/5/2 86/5/2
f 74/1/2 75/1/2 87/1/2
f 87/1/2 75/1/2 88/1/2
f 79/6/2 84/6/2 92/6/2
f 92/6/2 84/6/2 93/6/2
f 88/2/2 89/2/2 94/2/2
f 94/2/2 89/2/2 95/2/2
f 90/4/2 91/4/2 96/4/2
f 91/5/2 92/5/2 97/5/2
f 96/4/2 91/4/2 97/4/2
f 97/5/2 92/5/2 98/5/2
f 99/3/2 100/3/2 102/3/2
f 102/3/2 100/3/2 103/3/2
f 101/2/2 102/2/2 108/2/2
f 102/3/2 103/3/2 109/3/2
f 108/2/2 102/2/2 109/2/2
f 103/4/2 104/4/2 110/4/2
f 109/3/2 103/3/2 110/3/2
f 104/5/2 105/5/2 111/5/2
f 110/4/2 104/4/2 111/4/2
f 111/5/2 105/5/2 112/5/2
f 106/1/2 107/1/2 113/1/2
f 113/1/2 107/1/2 114/1/2
f 109/3/2 110/3/2 115/3/2
f 115/3/2 110/3/2 116/3/2
f 119/1/3 118/1/3 117/1/3
f 120/1/3 118/1/3 119/1/3
f 124/2/3 122/2/3 121/2/3
f 125/2/3 122/2/3 124/2/3
f 127/2/3 124/2/3 123/2/3
f 128/2/3 124/2/3 127/2/3
f 129/2/3 126/2/3 125/2/3
f 130/2/3 126/2/3 129/2/3
f 131/2/3 129/2/3 128/2/3
f 132/2/3 129/2/3 131/2/3
f 137/3/3 134/3/3 133/3/3
f 138/3/3 134/3/3 137/3/3
f 139/3/3 136/3/3 135/3/3
f 140/3/3 136/3/3 139/3/3
f 145/3/3 142/3/3 141/3/3
f 146/3/3 142/3/3 145/3/3
f 147/3/3 144/3/3 143/3/3
f 148/3/3 144/3/3 147/3/3
f 151/1/3 150/1/3 149/1/3
f 152/1/3 150/1/3 151/1/3
f 157/1/3 154/1/3 153/1/3
f 158/1/3 154/1/3 157/1/3
f 159/1/3 156/1/3 155/1/3
f 160/1/3 156/1/3 159/1/3
f 163/1/3 162/1/3 161/1/3
f 164/1/3 162/1/3 163/1/3
f 165/3/4 166/3/4 169/3/4
f 169/3/4 166/3/4 170/3/4
f 167/3/4 168/3/4 171/3/4
f 171/3/4 168/3/4 172/3/4
f 173/3/4 174/3/4 177/3/4
f 177/3/4 174/3/4 178/3/4
f 175/3/4 176/3/4 179/3/4
f 179/3/4 176/3/4 180/3/4
f 181/5/4 182/5/4 184/5/4
f 184/5/4 182/5/4 185/5/4
f 183/5/4 184/5/4 187/5/4
f 187/5/4 184/5/4 188/5/4
f 185/5/4 186/5/4 189/5/4
f 189/5/4 186/5/4 190/5/4
f 188/5/4 189/5/4 191/5/4
f 191/5/4 189/5/4 192/5/4
f 193/5/4 194/5/4 196/5/4
f 194/5/4 195/5/4 196/5/4
f 196/5/4 195/5/4 197/5/4
f 196/5/4 197/5/4 198/5/4
f 198/5/4 197/5/4 199/5/4
f 199/5/4 197/5/4 200/5/4
f 201/1/4 202/1/4 203/1/4
f 203/1/4 202/1/4 204/1/4
f 205/1/4 206/1/4 209/1/4
f 209/1/4 206/1/4 210/1/4
f 207/1/4 208/1/4 211/1/4
f 211/1/4 208/1/4 212/1/4
f 213/1/4 214/1/4 215/1/4
f 215/1/4 214/1/4 216/1/4
f 220/2/5 218/2/5 217/2/5
f 221/2/5 218/2/5 220/2/5
f 223/3/5 220/3/5 219/3/5
f 223/3/5 222/3/5 221/3/5
f 223/3/5 221/3/5 220/3/5
f 224/3/5 222/3/5 223/3/5
f 225/3/5 222/3/5 224/3/5
f 226/3/5 222/3/5 225/3/5
f 227/4/5 225/4/5 224/4/5
f 228/4/5 225/4/5 227/4/5
f 229/5/5 228/5/5 227/5/5
f 230/5/5 228/5/5 229/5/5
f 233/1/5 232/1/5 231/1/5
f 234/1/5 232/1/5 233/1/5
f 238/1/5 236/1/5 235/1/5
f 239/1/5 236/1/5 238/1/5
f 241/2/5 238/2/5 237/2/5
f 242/2/5 238/2/5 241/2/5
f 243/2/5 240/2/5 239/2/5
f 244/2/5 240/2/5 243/2/5
f 249/4/5 246/4/5 245/4/5
f 250/4/5 246/4/5 249/4/5
f 251/4/5 248/4/5 247/4/5
f 252/4/5 248/4/5 251/4/5
f 253/5/5 250/5/5 249/5/5
f 254/5/5 250/5/5 253/5/5
f 255/5/5 252/5/5 251/5/5
f 256/5/5 252/5/5 255/5/5
f 258/6/5 255/6/5 254/6/5
f 259/6/5 255/6/5 258/6/5
f 260/6/5 255/6/5 259/6/5
f 261/1/5 258/1/5 257/1/5
f 261/5/5 259/5/5 258/5/5
f 262/5/5 259/5/5 261/5/5
f 263/1/5 261/1/5 257/1/5
f 264/1/5 261/1/5 263/1/5
f 267/1/5 266/1/5 265/1/5
f 268/1/5 266/1/5 267/1/5
f 269/1/5 266/1/5 268/1/5
f 270/1/5 266/1/5 269/1/5
f 273/1/5 272/1/5 271/1/5
f 274/1/5 272/1/5 273/1/5
f 275/1/6 276/1/6 277/1/6
f 277/1/6 276/1/6 278/1/6
f 279/1/6 280/1/6 281/1/6
f 279/1/6 281/1/6 282/1/6
f 282/1/6 281/1/6 283/1/6
f 284/1/6 285/1/6 287/1/6
f 287/1/6 285/1/6 288/1/6
f 286/2/6 287/2/6 290/2/6
f 290/2/6 287/2/6 291/2/6
f 288/2/6 289/2/6 292/2/6
f 292/2/6 289/2/6 293/2/6
f 294/4/6 295/4/6 298/4/6
f 298/4/6 295/4/6 299/4/6
f 296/4/6 297/4/6 300/4/6
f 300/4/6 297/4/6 301/4/6
f 298/5/6 299/5/6 302/5/6
f 302/5/6 299/5/6 303/5/6
f 300/5/6 301/5/6 304/5/6
f 304/5/6 301/5/6 305/5/6
f 303/6/6 304/6/6 306/6/6
f 306/6/6 304/6/6 307/6/6
f 307/6/6 304/6/6 308/6/6
f 307/5/6 308/5/6 310/5/6
f 308/1/6 309/1/6 311/1/6
f 310/5/6 308/5/6 311/5/6
f 311/1/6 309/1/6 312/1/6
f 312/1/6 309/1/6 313/1/6
f 314/2/6 315/2/6 317/2/6
f 317/2/6 315/2/6 318/2/6
f 316/3/6 317/3/6 320/3/6
f 318/3/6 319/3/6 320/3/6
f 317/3/6 318/3/6 320/3/6
f 320/3/6 319/3/6 321/3/6
f 321/3/6 319/3/6 322/3/6
f 322/3/6 319/3/6 323/3/6
f 321/4/6 322/4/6 324/4/6
f 324/4/6 322/4/6 325/4/6
f 324/5/6 325/5/6 326/5/6
f 326/5/6 325/5/6 327/5/6
f 328/1/6 329/1/6 330/1/6
f 330/1/6 329/1/6 331/1/6
